<?xml version="1.0" encoding="UTF-8" standalone="no"?>
<svg
   width="25"
   height="25"
   viewBox="0 0 25 25"
   fill="none"
   version="1.1"
   id="svg19"
   sodipodi:docname="favorite-selected.svg"
   inkscape:version="1.1.1 (3bf5ae0d25, 2021-09-20)"
   xmlns:inkscape="http://www.inkscape.org/namespaces/inkscape"
   xmlns:sodipodi="http://sodipodi.sourceforge.net/DTD/sodipodi-0.dtd"
   xmlns="http://www.w3.org/2000/svg"
   xmlns:svg="http://www.w3.org/2000/svg">
  <defs
     id="defs23" />
  <sodipodi:namedview
     id="namedview21"
     pagecolor="#ffffff"
     bordercolor="#666666"
     borderopacity="1.0"
     inkscape:pageshadow="2"
     inkscape:pageopacity="0.0"
     inkscape:pagecheckerboard="0"
     showgrid="false"
     inkscape:zoom="11.43"
     inkscape:cx="3.6307961"
     inkscape:cy="5.3805774"
     inkscape:window-width="2560"
     inkscape:window-height="1361"
     inkscape:window-x="2551"
     inkscape:window-y="-9"
     inkscape:window-maximized="1"
     inkscape:current-layer="svg19" />
  <path
     d="M21.7083 4.80203C21.1763 4.26974 20.5446 3.8475 19.8493 3.55941C19.1541 3.27133 18.4088 3.12305 17.6562 3.12305C16.9037 3.12305 16.1584 3.27133 15.4632 3.55941C14.7679 3.8475 14.1362 4.26974 13.6042 4.80203L12.5 5.9062L11.3958 4.80203C10.3212 3.72735 8.86357 3.1236 7.34375 3.1236C5.82392 3.1236 4.36634 3.72735 3.29166 4.80203C2.21698 5.87671 1.61324 7.33429 1.61324 8.85411C1.61324 10.3739 2.21698 11.8315 3.29166 12.9062L4.39583 14.0104L12.5 22.1145L20.6042 14.0104L21.7083 12.9062C22.2406 12.3742 22.6629 11.7425 22.9509 11.0472C23.239 10.3519 23.3873 9.60671 23.3873 8.85411C23.3873 8.10152 23.239 7.35631 22.9509 6.66104C22.6629 5.96577 22.2406 5.33407 21.7083 4.80203V4.80203Z"
     stroke="black"
     stroke-width="2"
     stroke-linecap="round"
     stroke-linejoin="round"
     id="path17" />
  <path
     style="fill:#ff0000;stroke-width:0.0218723"
     d="M 8.1234836,16.300306 C 5.7226148,13.897364 3.7087003,11.867345 3.6481177,11.789151 3.2405327,11.263085 2.9379692,10.651006 2.7776478,10.028209 2.6731331,9.6222032 2.633204,9.3036732 2.6323616,8.8692038 2.6312875,8.3153045 2.6996989,7.8813517 2.8685562,7.3709536 3.2093584,6.3408248 3.9224028,5.4331193 4.8447069,4.8553141 6.3473545,3.9139351 8.2787528,3.9006822 9.7877238,4.821396 10.18866,5.0660314 10.39693,5.2447334 11.165792,6.0038222 c 0.791465,0.7814051 0.84869,0.8275886 1.096121,0.8846316 0.123005,0.028358 0.353198,0.028351 0.476237,-1.42e-5 0.252847,-0.058291 0.302351,-0.098206 1.096058,-0.8837524 0.783816,-0.7757573 1.007204,-0.9661126 1.41802,-1.2083361 0.858488,-0.5061775 1.886355,-0.7368527 2.850223,-0.6396504 0.86719,0.087453 1.719259,0.4210281 2.407617,0.9425543 0.236931,0.179508 0.63945,0.5724225 0.825964,0.8062568 0.546664,0.6853565 0.895999,1.5158863 1.007384,2.3950131 0.03708,0.2926875 0.03172,0.874939 -0.01087,1.180009 -0.116337,0.8332731 -0.45464,1.6296891 -0.98066,2.3086171 -0.09785,0.1263 -8.823839,8.88014 -8.851882,8.88014 -0.0062,0 -1.975648,-1.966043 -4.3765164,-4.368985 z"
     id="path218" />
</svg>
